<?xml version="1.0" encoding="utf-8"?>
<!-- Generator: Adobe Illustrator 22.1.0, SVG Export Plug-In . SVG Version: 6.00 Build 0)  -->
<svg version="1.1" id="Layer_1" xmlns="http://www.w3.org/2000/svg" xmlns:xlink="http://www.w3.org/1999/xlink" x="0px" y="0px"
	 viewBox="0 0 500 500" style="enable-background:new 0 0 500 500;" xml:space="preserve">
<style type="text/css">
	.st0{fill:#D8D8D8;}
</style>
<g>
	<g>
		<g>
			<g>
				<path class="st0" d="M352.3,45.6c0,0-33.6,32.6-70,45.8C13,188.8,126.6,378.7,130.3,379.3c0,0,15.1-26.3,35.5-41.3
					c129.5-95.2,155.8-204.7,155.8-204.7s-29.1,131.8-144.2,213.8c-25.4,18.1-42.7,62.7-50,107.2c0,0,18.1-7.3,25.8-9.2
					c3-19.7,9.4-38.6,20-55.5c161,19.2,213.7-110.5,220.6-155.8C410,127,352.3,45.6,352.3,45.6L352.3,45.6z M352.3,45.6"/>
			</g>
		</g>
	</g>
</g>
</svg>
