<?xml version="1.0" encoding="utf-8"?>
<!-- Generator: Adobe Illustrator 22.1.0, SVG Export Plug-In . SVG Version: 6.00 Build 0)  -->
<svg version="1.1" id="Layer_1" xmlns="http://www.w3.org/2000/svg" xmlns:xlink="http://www.w3.org/1999/xlink" x="0px" y="0px"
	 viewBox="0 0 500 500" style="enable-background:new 0 0 500 500;" xml:space="preserve">
<style type="text/css">
	.st0{fill:#D8D8D8;}
</style>
<g>
	<g>
		<path class="st0" d="M29.4,386V114h200.3v47.2H84.8v58.3h133.4v48H84.8v70.2h151.4V386H29.4z"/>
		<path class="st0" d="M417.2,386V263.8c0-15.6-2.6-26.1-7.8-31.6c-5.2-5.5-14.1-8.2-26.7-8.2c-27.6,0-41.4,15.5-41.4,46.4V386H288
			V184.1h50.9v29.5c6.3-11.6,14.6-20.4,24.9-26.3c10.4-5.9,23.7-8.9,40.1-8.9c9.5,0,18.4,1.4,26.6,4.3c8.2,2.9,15.2,7.2,21.1,13
			s10.5,12.8,13.9,21.2c3.4,8.4,5.1,18,5.1,29V386H417.2z"/>
	</g>
</g>
</svg>
