<?xml version="1.0" encoding="utf-8"?>
<!-- Generator: Adobe Illustrator 22.1.0, SVG Export Plug-In . SVG Version: 6.00 Build 0)  -->
<svg version="1.1" id="Layer_1" xmlns="http://www.w3.org/2000/svg" xmlns:xlink="http://www.w3.org/1999/xlink" x="0px" y="0px"
	 viewBox="0 0 500 500" style="enable-background:new 0 0 500 500;" xml:space="preserve">
<style type="text/css">
	.st0{fill:#D8D8D8;}
</style>
<g>
	<g>
		<g>
			<path class="st0" d="M392.8,209.4c0-86.1-66.7-156.9-151.2-163.5V32.3h-25.5v56.1c-44.7,4.7-82.3,33.6-99.2,73.4
				c13.8,0.2,31,2.5,42.7,11.8c8.1,6.3,12.7,15.1,13.6,25.5c2.5,31.7,4.8,37.8,9.4,40c12.6,6.1,20.3,28.1,20.6,45.7
				c0.2,15.7-4.7,29.3-14,39.5c8.6,3,17.7,5,27,6v60H112.3v77.4H343v-77.4H241.6v-17.5C326.1,366.3,392.8,295.5,392.8,209.4z
				 M367.3,209.4c0,72-55.3,131.4-125.7,137.9v-16.9c16-1.7,31.1-6.5,44.6-13.7c-10.2-11.5-14.3-31.2-12.7-60.3
				c0.4-7.1-8.7-19.3-16-29.1c-8.4-11.2-16.3-21.8-17.5-32.6c-2.9-26.4,9.7-36.7,19-44.2c5.7-4.7,9-7.6,10.7-13.2
				c2.8-9.2,10.2-21.1,29.7-26.9c-16.6-11.9-36.4-19.7-57.8-21.9V71.5C312,78,367.3,137.3,367.3,209.4z"/>
			<path class="st0" d="M164.1,312.3c7.5-4.9,12-12.1,13.2-21.4c1.7-13.4-3.7-26.2-6.6-29.2c-18-9.2-20.4-28.1-23-60.5
				c-0.3-3.3-1.4-5.5-3.9-7.4c-7.2-5.7-22.4-6.8-34.6-6.2c-1.3,7.1-2,14.4-2,21.9C107.2,252.6,129.9,290.7,164.1,312.3z"/>
			<path class="st0" d="M294.1,144.6c-4,13.4-12.7,20.5-19,25.6c-7.6,6.2-11.1,9.1-9.7,21.7c0.4,3.9,7.4,13.3,12.6,20.1
				c10.3,13.8,22,29.4,21.1,45.8c-1.7,30.6,4.5,39.9,6.4,42c0.9,0.9,1.7,1.5,2.8,1.7c25.9-22.3,42.3-55.3,42.3-92.1
				c0-29.1-10.3-55.9-27.4-76.9C314.4,132.5,297.1,134.6,294.1,144.6z"/>
		</g>
	</g>
</g>
</svg>
