<?xml version="1.0" encoding="utf-8"?>
<!-- Generator: Adobe Illustrator 22.1.0, SVG Export Plug-In . SVG Version: 6.00 Build 0)  -->
<svg version="1.1" id="Layer_1" xmlns="http://www.w3.org/2000/svg" xmlns:xlink="http://www.w3.org/1999/xlink" x="0px" y="0px"
	 viewBox="0 0 500 500" style="enable-background:new 0 0 500 500;" xml:space="preserve">
<style type="text/css">
	.st0{fill:#D8D8D8;}
</style>
<g>
	<g>
		<g>
			<g>
				<path class="st0" d="M43.1,239.6h191v-191h-191V239.6z M96.1,134.3h32.7v-32.8h19.6v32.8h32.8v19.5h-32.8v32.8h-19.6v-32.8H96.1
					V134.3z M96.1,134.3"/>
				<path class="st0" d="M43.1,451.4h191V260.4h-191V451.4z M96.1,346.2h85.1v19.5H96.1V346.2z M96.1,346.2"/>
				<path class="st0" d="M265.9,48.6v191h191v-191H265.9z M404.6,167.3l-13.8,13.8l-23.2-23.2l-23.2,23.2l-13.8-13.8l23.2-23.2
					l-23.2-23.2l13.8-13.8l23.2,23.2l23.2-23.2l13.8,13.8l-23.2,23.2L404.6,167.3z M404.6,167.3"/>
				<path class="st0" d="M265.9,451.4h191V260.4h-191V451.4z M380.9,400.5c-0.8,1.9-2,3.5-3.4,5c-1.4,1.4-3,2.5-5,3.4
					c-1.9,0.9-4,1.3-6.2,1.3c-2.2,0-4.3-0.4-6.3-1.3c-1.9-0.9-3.6-2-5-3.4c-1.4-1.5-2.5-3.1-3.4-5c-0.8-2-1.3-4.1-1.3-6.2
					c0-2.2,0.5-4.3,1.3-6.2c0.8-2,2-3.6,3.4-5.1c1.4-1.4,3.1-2.5,5-3.4c2-0.8,4.1-1.3,6.3-1.3c2.1,0,4.2,0.5,6.2,1.3
					c2,0.8,3.6,2,5,3.4c1.5,1.4,2.6,3.1,3.4,5.1c0.8,1.9,1.3,4,1.3,6.2C382.2,396.4,381.7,398.5,380.9,400.5L380.9,400.5z
					 M351.6,311.4c0.8-1.9,2-3.6,3.4-5c1.4-1.5,3.1-2.6,5-3.5c1.9-0.9,4-1.3,6.2-1.3c2.2,0,4.2,0.4,6.2,1.3c2,0.9,3.6,2,5.1,3.5
					c1.4,1.4,2.5,3.1,3.4,5c0.8,2,1.3,4,1.3,6.2c0,2.2-0.4,4.3-1.3,6.2c-0.8,1.9-2,3.6-3.4,5c-1.4,1.4-3,2.6-5.1,3.4
					c-1.9,0.8-3.9,1.2-6.2,1.2c-2.2,0-4.3-0.4-6.2-1.2c-1.9-0.9-3.6-2-5-3.4c-1.5-1.4-2.6-3-3.4-5c-0.8-2-1.3-4-1.3-6.2
					C350.4,315.4,350.8,313.3,351.6,311.4L351.6,311.4z M324.7,344.4h85.6v24h-85.6V344.4z M324.7,344.4"/>
			</g>
		</g>
	</g>
</g>
</svg>
