<?xml version="1.0" encoding="utf-8"?>
<!-- Generator: Adobe Illustrator 22.1.0, SVG Export Plug-In . SVG Version: 6.00 Build 0)  -->
<svg version="1.1" id="Layer_1" xmlns="http://www.w3.org/2000/svg" xmlns:xlink="http://www.w3.org/1999/xlink" x="0px" y="0px"
	 viewBox="0 0 500 500" style="enable-background:new 0 0 500 500;" xml:space="preserve">
<style type="text/css">
	.st0{fill:#D8D8D8;}
</style>
<g>
	<g>
		<g>
			<path class="st0" d="M426.8,87.9h7.4c4.1,0,7.4-3.3,7.4-7.4c0-4.1-3.3-7.4-7.4-7.4h-7.4c-4.1,0-7.4,3.3-7.4,7.4
				C419.4,84.6,422.7,87.9,426.8,87.9L426.8,87.9z M426.8,87.9"/>
			<path class="st0" d="M397.3,87.9h7.4c4.1,0,7.4-3.3,7.4-7.4c0-4.1-3.3-7.4-7.4-7.4h-7.4c-4.1,0-7.4,3.3-7.4,7.4
				C390,84.6,393.3,87.9,397.3,87.9L397.3,87.9z M397.3,87.9"/>
			<path class="st0" d="M456.3,87.9h7.4c4.1,0,7.4-3.3,7.4-7.4c0-4.1-3.3-7.4-7.4-7.4h-7.4c-4.1,0-7.3,3.3-7.3,7.4
				C448.9,84.6,452.2,87.9,456.3,87.9L456.3,87.9z M456.3,87.9"/>
			<path class="st0" d="M434.2,132.1h-7.4c-4.1,0-7.4,3.3-7.4,7.4c0,4.1,3.3,7.3,7.4,7.3h7.4c4.1,0,7.4-3.3,7.4-7.3
				C441.6,135.4,438.2,132.1,434.2,132.1L434.2,132.1z M434.2,132.1"/>
			<path class="st0" d="M397.3,146.8h7.4c4.1,0,7.4-3.3,7.4-7.3c0-4.1-3.3-7.4-7.4-7.4h-7.4c-4.1,0-7.4,3.3-7.4,7.4
				C390,143.6,393.3,146.8,397.3,146.8L397.3,146.8z M397.3,146.8"/>
			<path class="st0" d="M463.6,132.1h-7.4c-4.1,0-7.3,3.3-7.3,7.4c0,4.1,3.3,7.3,7.3,7.3h7.4c4.1,0,7.4-3.3,7.4-7.3
				C471,135.4,467.7,132.1,463.6,132.1L463.6,132.1z M463.6,132.1"/>
			<path class="st0" d="M404.7,110c0,4.1,3.3,7.4,7.4,7.4h7.3c4.1,0,7.4-3.3,7.4-7.4c0-4.1-3.3-7.3-7.4-7.3h-7.3
				C408,102.7,404.7,106,404.7,110L404.7,110z M404.7,110"/>
			<path class="st0" d="M434.2,110c0,4.1,3.3,7.4,7.4,7.4h7.4c4.1,0,7.3-3.3,7.3-7.4c0-4.1-3.3-7.3-7.3-7.3h-7.4
				C437.5,102.7,434.2,106,434.2,110L434.2,110z M434.2,110"/>
			<path class="st0" d="M434.2,360.5h-7.4c-4.1,0-7.4,3.3-7.4,7.3c0,4.1,3.3,7.4,7.4,7.4h7.4c4.1,0,7.4-3.3,7.4-7.4
				C441.6,363.8,438.2,360.5,434.2,360.5L434.2,360.5z M434.2,360.5"/>
			<path class="st0" d="M397.3,375.2h7.4c4.1,0,7.4-3.3,7.4-7.4c0-4.1-3.3-7.3-7.4-7.3h-7.4c-4.1,0-7.4,3.3-7.4,7.3
				C390,372,393.3,375.2,397.3,375.2L397.3,375.2z M397.3,375.2"/>
			<path class="st0" d="M463.6,360.5h-7.4c-4.1,0-7.3,3.3-7.3,7.3c0,4.1,3.3,7.4,7.3,7.4h7.4c4.1,0,7.4-3.3,7.4-7.4
				C471,363.8,467.7,360.5,463.6,360.5L463.6,360.5z M463.6,360.5"/>
			<path class="st0" d="M434.2,419.4h-7.4c-4.1,0-7.4,3.3-7.4,7.4c0,4.1,3.3,7.4,7.4,7.4h7.4c4.1,0,7.4-3.3,7.4-7.4
				C441.6,422.8,438.2,419.4,434.2,419.4L434.2,419.4z M434.2,419.4"/>
			<path class="st0" d="M404.7,419.4h-7.4c-4.1,0-7.4,3.3-7.4,7.4c0,4.1,3.3,7.4,7.4,7.4h7.4c4.1,0,7.4-3.3,7.4-7.4
				C412.1,422.8,408.8,419.4,404.7,419.4L404.7,419.4z M404.7,419.4"/>
			<path class="st0" d="M463.6,419.4h-7.4c-4.1,0-7.3,3.3-7.3,7.4c0,4.1,3.3,7.4,7.3,7.4h7.4c4.1,0,7.4-3.3,7.4-7.4
				C471,422.8,467.7,419.4,463.6,419.4L463.6,419.4z M463.6,419.4"/>
			<path class="st0" d="M426.8,397.4c0-4.1-3.3-7.4-7.4-7.4h-7.3c-4.1,0-7.4,3.3-7.4,7.4c0,4.1,3.3,7.3,7.4,7.3h7.3
				C423.5,404.7,426.8,401.4,426.8,397.4L426.8,397.4z M426.8,397.4"/>
			<path class="st0" d="M456.3,397.4c0-4.1-3.3-7.4-7.3-7.4h-7.4c-4.1,0-7.4,3.3-7.4,7.4c0,4.1,3.3,7.3,7.4,7.3h7.4
				C453,404.7,456.3,401.4,456.3,397.4L456.3,397.4z M456.3,397.4"/>
			<path class="st0" d="M301.6,51.1h-73.7C118.2,51.1,29,140.3,29,250c0,109.7,89.2,198.9,198.9,198.9h154.7V331H227.9
				c-44.7,0-81-36.3-81-81c0-44.7,36.3-81,81-81h154.7V51.1H301.6z M316.3,345.8h51.6v88.4h-51.6V345.8z M367.9,65.8v88.4h-51.6
				V65.8H367.9z M367.9,65.8"/>
		</g>
	</g>
</g>
</svg>
