<?xml version="1.0" encoding="utf-8"?>
<!-- Generator: Adobe Illustrator 22.1.0, SVG Export Plug-In . SVG Version: 6.00 Build 0)  -->
<svg version="1.1" id="Layer_1" xmlns="http://www.w3.org/2000/svg" xmlns:xlink="http://www.w3.org/1999/xlink" x="0px" y="0px"
	 viewBox="0 0 500 500" style="enable-background:new 0 0 500 500;" xml:space="preserve">
<style type="text/css">
	.st0{fill:#D8D8D8;}
</style>
<g>
	<g>
		<path class="st0" d="M68.6,77.9c0-19.6,14.2-34.4,34.4-34.4c20.2,0,34.4,14.8,34.4,34.4s-14.2,34.4-34.4,34.4
			C82.8,112.2,68.6,97.4,68.6,77.9z M121.3,136h72.5v320.5h-72.5V136z M177.6,77.9c0-19.6,14.2-34.4,34.4-34.4
			c20.2,0,34.4,14.8,34.4,34.4s-14.2,34.4-34.4,34.4C191.8,112.2,177.6,97.4,177.6,77.9z"/>
		<path class="st0" d="M253.6,132c0-19.6,14.2-34.4,34.4-34.4c20.2,0,34.4,14.8,34.4,34.4s-14.2,34.4-34.4,34.4
			C267.8,166.4,253.6,151.6,253.6,132z M306.3,196.8h72.5v259.7h-72.5V196.8z M362.6,132c0-19.6,14.2-34.4,34.4-34.4
			c20.2,0,34.4,14.8,34.4,34.4s-14.2,34.4-34.4,34.4C376.8,166.4,362.6,151.6,362.6,132z"/>
	</g>
</g>
</svg>
