<?xml version="1.0" encoding="UTF-8"?>
<svg width="394px" height="394px" viewBox="0 0 394 394" version="1.1" xmlns="http://www.w3.org/2000/svg" xmlns:xlink="http://www.w3.org/1999/xlink">
    <!-- Generator: Sketch 49.3 (51167) - http://www.bohemiancoding.com/sketch -->
    <title>3</title>
    <desc>Created with Sketch.</desc>
    <defs></defs>
    <g id="Page-1" stroke="none" stroke-width="1" fill="none" fill-rule="evenodd">
        <g id="3" transform="translate(2.000000, 2.000000)">
            <g id="Group" opacity="0.245776721" fill="#00AA04" fill-rule="nonzero">
                <g id="Shape">
                    <path d="M378.7,389.4 L11.3,389.4 C5.4,389.4 0.6,384.6 0.6,378.7 L0.6,11.3 C0.6,5.4 5.4,0.6 11.3,0.6 L378.6,0.6 C384.5,0.6 389.3,5.4 389.3,11.3 L389.3,378.6 C389.4,384.6 384.6,389.4 378.7,389.4 Z"></path>
                </g>
            </g>
            <g id="Group" transform="translate(9.000000, 10.000000)" stroke="#00AA04" stroke-width="20">
                <path d="M375.72419,374.161271 L186,185 C30.210026,29.5155806 -26.5256914,-27.0673595 15.7928479,15.2511798" id="Shape"></path>
                <path d="M365.915616,4.47895127 C387.119032,-16.7244648 327.14716,43.4492181 186,185 C30.3697875,339.937223 -27.58417,397.477852 12.1381276,357.621885 C71.721574,297.837935 334.110492,36.2840754 365.915616,4.47895127 Z" id="Shape"></path>
            </g>
            <path d="M378.7,389.4 L11.3,389.4 C5.4,389.4 0.6,384.6 0.6,378.7 L0.6,11.3 C0.6,5.4 5.4,0.6 11.3,0.6 L378.6,0.6 C384.5,0.6 389.3,5.4 389.3,11.3 L389.3,378.6 C389.4,384.6 384.6,389.4 378.7,389.4 Z" id="Shape" stroke="#00AA04" stroke-width="5"></path>
        </g>
    </g>
</svg>