<?xml version="1.0" encoding="utf-8"?>
<!-- Generator: Adobe Illustrator 22.1.0, SVG Export Plug-In . SVG Version: 6.00 Build 0)  -->
<svg version="1.1" id="Layer_1" xmlns="http://www.w3.org/2000/svg" xmlns:xlink="http://www.w3.org/1999/xlink" x="0px" y="0px"
	 viewBox="0 0 550 550" style="enable-background:new 0 0 550 550;" xml:space="preserve">
<style type="text/css">
	.st0{opacity:0.1;}
	.st1{fill:#00AA04;}
	.st2{fill:none;stroke:#00AA04;stroke-width:3;stroke-miterlimit:10;}
</style>
<g class="st0">
	<g>
		<g>
			<g>
				<path class="st1" d="M458.7,469.4H91.3c-5.9,0-10.7-4.8-10.7-10.7V91.3c0-5.9,4.8-10.7,10.7-10.7h367.3
					c5.9,0,10.7,4.8,10.7,10.7v367.3C469.4,464.6,464.6,469.4,458.7,469.4z"/>
			</g>
		</g>
	</g>
</g>
<g>
	<polyline class="st2" points="465.5,465.5 275,275 84.1,84.1 	"/>
	<polyline class="st2" points="466,84 275,275 84,466 	"/>
</g>
<g>
	<g>
		<g>
			<path class="st2" d="M458.7,469.4H91.3c-5.9,0-10.7-4.8-10.7-10.7V91.3c0-5.9,4.8-10.7,10.7-10.7h367.3c5.9,0,10.7,4.8,10.7,10.7
				v367.3C469.4,464.6,464.6,469.4,458.7,469.4z"/>
		</g>
	</g>
</g>
</svg>
