<?xml version="1.0" encoding="UTF-8"?>
<svg width="394px" height="394px" viewBox="0 0 394 394" version="1.1" xmlns="http://www.w3.org/2000/svg" xmlns:xlink="http://www.w3.org/1999/xlink">
    <!-- Generator: Sketch 49.3 (51167) - http://www.bohemiancoding.com/sketch -->
    <title>2</title>
    <desc>Created with Sketch.</desc>
    <defs></defs>
    <g id="Page-1" stroke="none" stroke-width="1" fill="none" fill-rule="evenodd">
        <g id="2" transform="translate(2.000000, 2.000000)" stroke="#FF2929">
            <g id="Group" opacity="0.247135417" fill="#FF2929" fill-rule="nonzero" stroke-width="3">
                <g id="Shape">
                    <path d="M378.7,389.4 L11.3,389.4 C5.4,389.4 0.6,384.6 0.6,378.7 L0.6,11.3 C0.6,5.4 5.4,0.6 11.3,0.6 L378.6,0.6 C384.5,0.6 389.3,5.4 389.3,11.3 L389.3,378.6 C389.4,384.6 384.6,389.4 378.7,389.4 Z"></path>
                </g>
            </g>
            <g id="Group" transform="translate(10.000000, 11.000000)" stroke-linecap="round" stroke-width="20">
                <polyline id="Shape" points="369.000015 368.599038 185 184 0.520117994 0.294854408"></polyline>
                <polyline id="Shape" points="369.7861 0.285606344 185 184 1.1767306 367.609495"></polyline>
            </g>
            <path d="M378.7,389.4 L11.3,389.4 C5.4,389.4 0.6,384.6 0.6,378.7 L0.6,11.3 C0.6,5.4 5.4,0.6 11.3,0.6 L378.6,0.6 C384.5,0.6 389.3,5.4 389.3,11.3 L389.3,378.6 C389.4,384.6 384.6,389.4 378.7,389.4 Z" id="Shape" stroke-width="5"></path>
        </g>
    </g>
</svg>